<svg height="120" viewBox="0 0 64 64" width="120" xmlns="http://www.w3.org/2000/svg"><g id="laptop-computer-speech_chat_bubble-coffee-Restaurant" data-name="laptop-computer-speech chat bubble-coffee-Restaurant"><path d="m7 21h50a2 2 0 0 1 2 2v30a0 0 0 0 1 0 0h-54a0 0 0 0 1 0 0v-30a2 2 0 0 1 2-2z" fill="#e0e0e2"/><path d="m9 25h46v28h-46z" fill="#2488ff"/><path d="m61 53v6a2.006 2.006 0 0 1 -2 2h-54a2.006 2.006 0 0 1 -2-2v-6z" fill="#ececec"/><path d="m38 53-1 4h-10l-1-4z" fill="#787680"/><path d="m61 3v26h-17.5l-9.5 5v-5h-4v-26z" fill="#f7d880"/><path d="m54 21v2a1 1 0 0 1 -1 1h-14a1 1 0 0 1 -1-1v-2z" fill="#365e7d"/><path d="m53 8v7a5.47 5.47 0 0 1 -.09 1 5.99 5.99 0 0 1 -5.91 5h-2a6 6 0 0 1 -6-6v-7z" fill="#b4e6ee"/><path d="m61 30a1 1 0 0 0 1-1v-26a1 1 0 0 0 -1-1h-31a1 1 0 0 0 -1 1v17h-22a3.009 3.009 0 0 0 -3 3v29h-1a1 1 0 0 0 -1 1v6a3.009 3.009 0 0 0 3 3h54a3.009 3.009 0 0 0 3-3v-6a1 1 0 0 0 -1-1h-1v-22zm-31 0h3v4a1.015 1.015 0 0 0 .48.86 1.067 1.067 0 0 0 .52.14 1 1 0 0 0 .47-.12l9.28-4.88h10.25v22h-44v-26h19v3a1 1 0 0 0 1 1zm6.72 24-.5 2h-8.44l-.5-2zm-30.72-31a1 1 0 0 1 1-1h22v2h-20a1 1 0 0 0 -1 1v27h-2zm54 36a1 1 0 0 1 -1 1h-54a1 1 0 0 1 -1-1v-5h21.22l.81 3.24a1 1 0 0 0 .97.76h10a1 1 0 0 0 .97-.76l.81-3.24h21.22zm-4-7v-22h2v22zm-12.5-24a1 1 0 0 0 -.47.12l-8.03 4.22v-3.34a1 1 0 0 0 -1-1h-3v-24h29v24z"/><path d="m55 10h-1v-2a1 1 0 0 0 -1-1h-14a1 1 0 0 0 -1 1v7a6.97 6.97 0 0 0 2.11 5h-2.11a1 1 0 0 0 -1 1v2a2.006 2.006 0 0 0 2 2h14a2.006 2.006 0 0 0 2-2v-2a1 1 0 0 0 -1-1h-2.11a7.065 7.065 0 0 0 1.82-3h1.29a3.009 3.009 0 0 0 3-3v-1a3.009 3.009 0 0 0 -3-3zm-2 12v1h-14v-1zm-1-7a5 5 0 0 1 -5 5h-2a5 5 0 0 1 -5-5v-6h12zm4-1a1 1 0 0 1 -1 1h-1v-3h1a1 1 0 0 1 1 1z"/></g></svg>