<svg height="150" viewBox="0 0 64 64" width="320" xmlns="http://www.w3.org/2000/svg"><g id="take_away-delivery-Restaurant-Coffee_break-coffee_time" data-name="take away-delivery-Restaurant-Coffee break-coffee time"><path d="m58 32v27a2.006 2.006 0 0 1 -2 2h-48a2.006 2.006 0 0 1 -2-2v-27l6-19h9v4h-2a2.006 2.006 0 0 0 -2 2v6a2.006 2.006 0 0 0 2 2h26a2.006 2.006 0 0 0 2-2v-6a2.006 2.006 0 0 0 -2-2h-4v-4h11z" fill="#5bcbfa"/><path d="m41 40-2 17h-14l-2-17z" fill="#7e543b"/><path d="m40.53 44-.82 7h-15.42l-.82-7z" fill="#f5e0ad"/><path d="m40 31 1 5h-18l1-4z" fill="#e9e9ea"/><path d="m42 36v4h-1-18-1v-4h1 18z" fill="#e0e0e2"/><path d="m25 19h-2a2.006 2.006 0 0 1 -2-2v-7l4-4v-4h13v3l3 4v11a2.006 2.006 0 0 1 -2 2 2.015 2.015 0 0 1 -2-2v1a2.015 2.015 0 0 1 -2 2 2.006 2.006 0 0 1 -2-2 2.015 2.015 0 0 1 -2 2 2.006 2.006 0 0 1 -2-2 2.015 2.015 0 0 1 -2 2 2.006 2.006 0 0 1 -2-2z" fill="#ffcbbe"/><path d="m58.95 31.7-6-19a.987.987 0 0 0 -.95-.7h-10v-3a.984.984 0 0 0 -.2-.6l-2.8-3.73v-2.67h-2v3a.984.984 0 0 0 .2.6l2.8 3.73v10.67a1 1 0 0 1 -2 0v-6h-2v7a1 1 0 0 1 -2 0v-7h-2v7a1 1 0 0 1 -2 0v-7h-2v7a1 1 0 0 1 -2 0v-7h-2v4h-1a1 1 0 0 1 -1-1v-6.59l3.71-3.7a1.033 1.033 0 0 0 .29-.71v-4h-2v3.59l-3.71 3.7a1.033 1.033 0 0 0 -.29.71v2h-8a.987.987 0 0 0 -.95.7l-6 19a1.047 1.047 0 0 0 -.05.3v27a3.009 3.009 0 0 0 3 3h48a3.009 3.009 0 0 0 3-3v-27a1.047 1.047 0 0 0 -.05-.3zm-38.77-13.7a3.01 3.01 0 0 0 2.82 2h1v1a3.009 3.009 0 0 0 3 3 2.974 2.974 0 0 0 2-.78 2.954 2.954 0 0 0 4 0 2.973 2.973 0 0 0 4.53-.62 2.942 2.942 0 0 0 1.47.4 3.009 3.009 0 0 0 3-3v-2h3a1 1 0 0 1 1 1v6a1 1 0 0 1 -1 1h-26a1 1 0 0 1 -1-1v-6a1 1 0 0 1 1-1zm36.82 41a1 1 0 0 1 -1 1h-48a1 1 0 0 1 -1-1v-26.85l5.73-18.15h7.27v2h-1a3.009 3.009 0 0 0 -3 3v6a3.009 3.009 0 0 0 3 3h26a3.009 3.009 0 0 0 3-3v-6a3.009 3.009 0 0 0 -3-3h-3v-2h9.27l5.73 18.15z"/><path d="m43 36a1 1 0 0 0 -1-1h-.18l-.84-4.2a.993.993 0 0 0 -1.043-.8l-16 1a1 1 0 0 0 -.907.755l-.811 3.245h-.219a1 1 0 0 0 -1 1v4a1 1 0 0 0 1 1h.111l1.9 16.117a1 1 0 0 0 .989.883h14a1 1 0 0 0 .993-.883l1.896-16.117h.111a1 1 0 0 0 1-1zm-20 1h18v2h-18zm1.792-4.047 14.4-.9.588 2.947h-15.5zm-.192 12.047h14.81l-.588 5h-13.639zm1.294 11-.47-4h13.157l-.47 4zm13.746-13h-15.28l-.235-2h15.75z"/><path d="m9 31h2v2h-2z"/><path d="m13 31h6v2h-6z"/><path d="m43 56h8v2h-8z"/><path d="m53 56h2v2h-2z"/></g></svg>