<svg xmlns="http://www.w3.org/2000/svg" width="56.803" height="52.263" viewBox="0 0 56.803 52.263"><g transform="translate(0 -20.46)"><g transform="translate(0 20.46)"><path d="M44.638,60.466H22.081l-1.31-5.239H50.347L56.8,29.4H14.316L12.08,20.46H0v3.705H9.187l9.12,36.481a6.131,6.131,0,1,0,7.1,3.525h13.6a6.128,6.128,0,1,0,5.628-3.705ZM31.844,51.521H27.73l-.919-7.353h5.033v7.353ZM45.7,33.11h6.358l-1.838,7.353H44.78ZM44.316,44.168h4.976l-1.838,7.353H43.4ZM35.549,33.11h6.415l-.919,7.353h-5.5V33.11Zm0,11.058h5.033l-.919,7.353H35.549V44.168ZM31.844,33.11v7.353h-5.5l-.919-7.353Zm-16.6,0h6.452l.919,7.353H17.08Zm2.765,11.058h5.07L24,51.521H19.845Zm1.776,24.849a2.423,2.423,0,1,1,2.423-2.423A2.426,2.426,0,0,1,19.783,69.018Zm24.855,0a2.423,2.423,0,1,1,2.423-2.423A2.426,2.426,0,0,1,44.638,69.018Z" transform="translate(0 -20.46)" fill="#fff"/></g></g></svg>